<?xml version="1.0" standalone="no"?>
<!DOCTYPE svg PUBLIC "-//W3C//DTD SVG 20010904//EN"
 "http://www.w3.org/TR/2001/REC-SVG-20010904/DTD/svg10.dtd">
<svg version="1.0" xmlns="http://www.w3.org/2000/svg"
 width="495.000000pt" height="495.000000pt" viewBox="0 0 495.000000 495.000000"
 preserveAspectRatio="xMidYMid meet">
<metadata>
Created by potrace 1.11, written by Peter Selinger 2001-2013
</metadata>
<g transform="translate(0.000000,495.000000) scale(0.100000,-0.100000)"
fill="#000000" stroke="none">
<path d="M2339 4913 c-104 -52 -220 -170 -272 -275 -34 -71 -63 -167 -66 -225
-1 -8 -17 -4 -48 12 -114 56 -255 74 -390 48 -84 -16 -208 -68 -235 -99 -40
-46 -45 -240 -9 -355 12 -37 18 -75 15 -85 -4 -14 -3 -16 4 -5 7 10 13 6 26
-19 8 -18 13 -38 9 -44 -3 -6 -3 -8 2 -4 5 5 19 -8 32 -28 31 -45 107 -119
155 -152 21 -13 35 -29 31 -35 -3 -6 -1 -7 5 -3 6 4 22 1 34 -6 13 -7 26 -11
31 -10 4 1 7 -3 7 -9 0 -5 4 -8 9 -4 5 3 12 1 15 -3 3 -5 -5 -15 -17 -21 -36
-21 -112 -117 -150 -189 -54 -102 -76 -198 -71 -312 4 -119 13 -151 47 -168
15 -7 27 -18 27 -23 0 -6 5 -7 10 -4 6 3 10 1 10 -4 0 -6 3 -10 8 -9 4 1 20
-4 35 -10 16 -7 33 -12 38 -12 6 0 8 -4 5 -9 -4 -5 3 -7 14 -4 11 3 20 1 20
-3 0 -5 10 -10 23 -11 157 -12 198 -13 234 -5 29 7 45 6 54 -2 9 -8 10 -8 4 3
-6 11 -4 13 8 8 10 -3 17 -3 17 1 0 4 15 12 33 18 17 6 41 15 52 19 17 8 18 7
7 -7 -9 -11 -10 -18 -2 -23 6 -4 10 -3 9 2 -4 18 15 45 40 54 14 6 28 10 29 9
2 -1 9 6 16 16 7 9 18 14 25 10 7 -5 10 -2 9 6 -2 7 3 12 10 10 6 -1 11 2 10
6 -2 5 16 28 40 52 l42 43 0 -998 0 -998 -55 87 c-49 79 -78 119 -140 196 -37
45 -170 176 -220 217 -43 34 -133 97 -201 140 -34 22 -197 99 -259 122 -33 13
-69 27 -80 31 -18 8 -149 38 -255 58 -107 20 -390 20 -485 -1 -11 -3 -53 -11
-93 -18 -64 -12 -74 -16 -79 -39 -10 -36 -10 -343 0 -415 60 -444 286 -831
644 -1102 193 -147 451 -261 673 -299 14 -2 34 -6 45 -9 84 -18 304 -24 435
-11 74 7 103 12 208 36 l52 12 0 754 c0 415 3 754 8 754 4 -1 27 -5 52 -10
110 -23 265 -29 420 -17 81 6 99 8 180 24 187 35 402 122 568 230 411 268 673
685 740 1178 7 53 8 338 2 393 -5 37 -5 37 -160 67 -84 17 -350 24 -425 12
-16 -3 -55 -8 -85 -12 -78 -10 -200 -41 -303 -77 -48 -17 -88 -29 -90 -27 -1
2 -17 35 -36 72 -18 38 -60 97 -92 132 -32 34 -55 65 -52 69 4 4 0 4 -9 1 -11
-4 -20 1 -28 14 -8 16 -8 21 2 21 7 0 30 11 51 25 20 14 37 23 37 20 0 -2 21
18 47 45 25 27 51 46 56 43 6 -3 7 -1 3 6 -4 6 0 14 8 17 9 3 16 12 16 19 0 7
7 18 15 25 15 12 75 132 75 150 0 6 4 10 8 10 4 0 8 8 8 18 1 9 5 33 9 52 21
102 8 268 -23 304 -25 27 -148 82 -222 98 -128 29 -292 8 -410 -50 l-55 -28
-1 26 c-1 80 -43 199 -97 282 -68 102 -207 213 -303 242 -14 4 -46 -6 -95 -31z
m214 -1805 c14 -24 47 -66 74 -93 50 -53 167 -138 176 -129 3 3 8 1 11 -4 3
-5 -10 -25 -28 -45 -19 -21 -31 -37 -28 -37 3 0 -4 -10 -15 -22 -48 -54 -134
-212 -211 -388 -8 -19 -11 74 -11 368 -1 215 1 392 3 392 2 0 15 -19 29 -42z"/>
<path d="M2695 2921 c-3 -5 -2 -12 3 -15 5 -3 9 1 9 9 0 17 -3 19 -12 6z"/>
<path d="M2745 2870 c-3 -6 1 -7 9 -4 18 7 21 14 7 14 -6 0 -13 -4 -16 -10z"/>
<path d="M1545 3630 c-3 -6 1 -7 9 -4 18 7 21 14 7 14 -6 0 -13 -4 -16 -10z"/>
<path d="M1670 2790 c0 -5 5 -10 11 -10 5 0 7 5 4 10 -3 6 -8 10 -11 10 -2 0
-4 -4 -4 -10z"/>
</g>
</svg>
